<?xml version="1.0" standalone="no"?>
<!DOCTYPE svg PUBLIC "-//W3C//DTD SVG 20010904//EN"
 "http://www.w3.org/TR/2001/REC-SVG-20010904/DTD/svg10.dtd">
<svg version="1.0" xmlns="http://www.w3.org/2000/svg"
 width="500.000000pt" height="500.000000pt" viewBox="0 0 500.000000 500.000000"
 preserveAspectRatio="xMidYMid meet">

<g transform="translate(0.000000,500.000000) scale(0.100000,-0.100000)"
fill="#000000" stroke="none">
<path d="M2671 3993 c-24 -8 -63 -34 -87 -57 l-44 -43 0 -133 c0 -129 -1 -133
-25 -156 -14 -13 -25 -34 -25 -49 0 -14 11 -37 25 -51 25 -25 25 -27 25 -199
0 -172 0 -174 -25 -199 -14 -14 -25 -37 -25 -51 0 -15 11 -36 25 -49 25 -23
25 -25 25 -196 0 -171 0 -173 -25 -196 -14 -13 -25 -34 -25 -49 0 -14 11 -37
25 -51 24 -24 25 -28 25 -177 l0 -152 48 -32 c72 -49 139 -75 208 -81 74 -6
129 11 224 67 55 33 76 40 135 43 133 9 247 83 297 193 18 40 23 71 25 154 l2
103 39 42 c46 50 66 101 66 171 0 68 -17 114 -70 185 l-44 61 17 83 c24 118
10 180 -57 247 -29 29 -66 54 -97 65 l-50 18 -6 62 c-8 80 -29 129 -75 177
-36 38 -118 87 -145 87 -7 0 -28 23 -46 50 -37 57 -84 96 -138 116 -50 17
-147 16 -202 -3z m182 -35 c50 -15 123 -82 132 -121 14 -53 -66 -127 -137
-127 -34 0 -40 4 -49 29 -14 40 -62 60 -98 40 -36 -20 -50 -63 -31 -96 22 -38
64 -50 98 -27 18 12 42 17 74 15 61 -3 109 20 157 77 45 52 59 52 137 0 64
-44 95 -103 97 -189 l2 -64 -45 -22 c-50 -26 -115 -30 -186 -12 -36 9 -47 18
-59 44 -22 55 -73 71 -116 37 -28 -23 -30 -73 -4 -102 19 -21 74 -27 91 -10 6
6 34 4 81 -7 l71 -17 -2 -62 c-1 -71 18 -107 72 -133 17 -9 35 -26 41 -39 24
-52 111 -48 129 7 26 76 -59 128 -121 73 -16 -14 -20 -14 -44 4 -32 24 -45 64
-35 112 7 31 13 37 52 48 24 7 59 21 76 30 44 24 101 7 158 -49 58 -55 73
-107 57 -197 -17 -91 -28 -110 -85 -132 -73 -28 -151 -33 -226 -14 -84 22
-104 36 -118 83 -14 46 -72 117 -113 139 -16 8 -29 20 -29 26 0 6 -10 22 -22
35 -43 46 -118 16 -118 -47 0 -58 67 -90 116 -56 18 13 24 13 48 -3 32 -21 68
-72 84 -119 13 -39 -4 -96 -44 -149 -36 -48 -66 -60 -95 -39 -31 22 -65 20
-89 -4 -24 -24 -26 -77 -3 -102 22 -25 78 -24 101 2 9 12 28 31 41 43 71 64
100 100 116 140 l17 44 51 -20 c76 -31 220 -29 301 3 l60 23 29 -34 c45 -53
67 -107 67 -172 0 -66 -16 -110 -54 -150 l-27 -29 -45 42 c-61 56 -125 84
-194 84 -62 1 -102 -13 -174 -58 -32 -20 -60 -29 -78 -27 -45 4 -78 -23 -78
-64 0 -101 132 -97 142 4 3 31 10 38 65 68 109 60 209 44 298 -47 l40 -41 0
-97 c0 -79 -4 -105 -22 -142 -36 -76 -35 -75 -85 -25 -26 26 -58 48 -77 51
-17 4 -34 11 -37 16 -4 6 -6 41 -6 79 1 62 -1 70 -25 89 -14 11 -34 20 -45 20
-27 0 -68 -45 -68 -75 0 -33 42 -75 75 -75 20 0 25 -5 25 -25 0 -18 -7 -26
-27 -31 -17 -5 -28 -3 -31 4 -21 63 -94 83 -131 36 -12 -15 -21 -34 -21 -44 0
-10 9 -29 21 -44 23 -30 78 -36 99 -11 7 8 25 15 41 15 15 0 39 4 53 10 17 6
36 6 58 -2 38 -12 98 -65 98 -86 0 -7 -26 -25 -57 -40 -53 -25 -69 -27 -178
-27 -130 0 -178 10 -241 51 -46 30 -73 68 -85 123 -10 46 -2 78 22 84 10 3 24
16 30 30 34 75 -57 139 -115 81 -21 -20 -20 -72 0 -95 9 -10 17 -40 19 -71 2
-30 10 -70 18 -89 27 -65 110 -125 197 -144 66 -14 66 -21 4 -51 -105 -52
-229 -36 -331 42 l-33 25 0 137 c0 136 0 136 27 158 36 29 36 79 0 110 l-27
23 0 173 c0 163 1 174 20 186 32 20 43 58 25 91 -8 16 -21 31 -30 34 -13 5
-15 33 -15 181 0 162 1 176 19 185 43 23 44 97 1 123 -18 12 -20 23 -20 139 0
124 0 126 28 152 62 59 158 81 245 55z m-109 -214 c20 -8 21 -50 1 -58 -14 -5
-45 17 -45 33 0 6 21 31 26 31 1 0 9 -3 18 -6z m-154 -189 c0 -31 -26 -43 -47
-22 -21 21 -9 47 22 47 20 0 25 -5 25 -25z m309 -49 c15 -18 4 -46 -18 -46
-27 0 -42 20 -30 42 12 21 32 23 48 4z m-64 -216 c0 -20 -5 -25 -25 -25 -28 0
-41 32 -18 46 23 15 43 5 43 -21z m435 -84 c0 -29 -28 -42 -48 -22 -20 20 -8
46 23 46 20 0 25 -5 25 -24z m-685 -146 c0 -18 -6 -26 -23 -28 -27 -4 -40 22
-22 44 19 22 45 13 45 -16z m245 -175 c18 -21 5 -47 -22 -43 -26 3 -37 36 -16
49 18 12 24 11 38 -6z m155 -245 c0 -18 -6 -26 -23 -28 -13 -2 -25 3 -28 12
-10 26 4 48 28 44 17 -2 23 -10 23 -28z m-397 -78 c4 -28 -24 -41 -44 -20 -20
20 -7 50 20 46 13 -2 22 -12 24 -26z m576 -5 c16 -25 -16 -56 -38 -37 -19 15
-20 32 -4 48 15 15 28 11 42 -11z m-377 -3 c8 -21 -19 -46 -40 -38 -17 6 -23
35 -10 47 12 13 44 7 50 -9z m273 -129 c10 -12 10 -18 0 -30 -7 -8 -18 -15
-25 -15 -7 0 -18 7 -25 15 -10 12 -10 18 0 30 7 8 18 15 25 15 7 0 18 -7 25
-15z"/>
<path d="M2970 1815 l0 -35 65 0 65 0 0 -255 0 -255 35 0 35 0 0 255 0 255 70
0 70 0 0 35 0 35 -170 0 -170 0 0 -35z"/>
<path d="M4317 1843 c-4 -3 -7 -134 -7 -290 l0 -283 35 0 35 0 0 135 c0 131 1
137 25 160 15 16 36 25 55 25 19 0 40 -9 55 -25 24 -23 25 -29 25 -160 l0
-135 36 0 36 0 -4 148 c-2 121 -6 153 -21 175 -44 67 -125 82 -177 32 l-30
-29 0 127 0 127 -28 0 c-16 0 -32 -3 -35 -7z"/>
<path d="M615 1798 c-41 -115 -195 -538 -201 -551 -6 -16 -2 -18 32 -15 l39 3
36 100 36 100 81 3 80 3 38 -106 38 -105 38 0 37 0 -23 63 c-13 34 -61 164
-106 290 -68 187 -86 227 -102 227 -10 0 -21 -6 -23 -12z m54 -221 c11 -32 21
-60 21 -62 0 -3 -22 -5 -50 -5 -27 0 -50 3 -50 8 0 20 45 130 51 124 4 -4 16
-33 28 -65z"/>
<path d="M950 1520 l0 -290 35 0 c31 0 35 3 35 26 l0 26 29 -25 c53 -44 128
-46 203 -4 113 62 132 236 36 323 -66 61 -171 72 -236 25 l-32 -22 0 115 0
116 -35 0 -35 0 0 -290z m267 20 c70 -42 83 -142 27 -201 -54 -57 -134 -58
-190 -2 -30 30 -34 40 -34 88 0 43 5 59 27 85 14 18 36 36 47 40 36 15 90 11
123 -10z"/>
<path d="M2790 1695 c0 -63 -2 -115 -5 -115 -2 0 -21 11 -41 25 -77 53 -201
22 -255 -63 -57 -89 -48 -184 25 -256 68 -69 174 -82 241 -32 27 21 35 20 35
-4 0 -16 7 -20 35 -20 l35 0 0 290 0 290 -35 0 -35 0 0 -115z m-63 -155 c128
-78 43 -271 -105 -239 -65 14 -111 85 -97 149 8 36 49 88 79 100 36 15 90 11
123 -10z"/>
<path d="M3506 1655 c-123 -44 -174 -202 -100 -307 51 -73 159 -109 238 -78
26 9 106 77 106 89 0 4 -14 12 -32 19 -28 10 -34 9 -51 -9 -24 -26 -59 -39
-105 -39 -79 0 -75 11 53 140 l120 121 -33 28 c-57 48 -126 61 -196 36z m114
-65 c12 -8 -2 -27 -74 -99 -49 -50 -93 -88 -98 -85 -15 9 -8 95 9 125 30 50
123 84 163 59z"/>
<path d="M3966 1655 c-102 -36 -159 -154 -124 -256 38 -111 165 -170 271 -125
33 13 97 70 97 86 0 4 -14 13 -32 19 -26 9 -34 9 -40 -4 -14 -24 -63 -45 -105
-45 -113 0 -175 140 -97 221 53 56 127 61 184 13 21 -18 35 -23 54 -18 42 10
42 25 -1 65 -61 56 -131 71 -207 44z"/>
<path d="M1517 1599 c-11 -6 -25 -27 -33 -46 -23 -55 -5 -95 64 -141 45 -29
58 -44 60 -67 6 -49 -41 -72 -75 -36 -13 13 -27 17 -50 14 -40 -6 -41 -13 -7
-52 28 -33 77 -52 118 -44 42 8 86 66 86 114 0 52 -19 79 -86 123 -67 45 -70
71 -9 72 65 1 75 3 75 18 0 42 -97 72 -143 45z"/>
<path d="M2316 1585 c-34 -23 -36 -23 -36 -5 0 16 -7 20 -35 20 l-35 0 0 -185
0 -185 35 0 35 0 0 113 c0 127 16 170 70 189 25 8 30 15 30 44 0 41 -14 43
-64 9z"/>
<path d="M1780 1478 c0 -100 4 -131 20 -165 48 -107 207 -114 270 -11 17 29
20 51 20 166 l0 132 -35 0 -35 0 0 -125 c0 -120 -1 -127 -25 -150 -15 -15 -36
-25 -54 -25 -76 0 -91 31 -91 185 l0 115 -35 0 -35 0 0 -122z"/>
</g>
</svg>
